<svg viewBox="154.437 126.342 191.063 238.29"  width="100%" height="auto" preserveAspectRatio="xMidYMid meet" data-bbox="154.437 126.342 191.063 238.29"  xmlns="http://www.w3.org/2000/svg" shape-rendering="geometricPrecision" text-rendering="geometricPrecision" image-rendering="optimizeQuality" fill-rule="evenodd" clip-rule="evenodd" data-type="color" role="presentation" aria-hidden="true" aria-label="">
    <g>
        <path d="M169.5 126.5a37.118 37.118 0 0 1 12 1.5A8980.478 8980.478 0 0 1 342 286.5c5.591 11.382 3.091 20.549-7.5 27.5-8.139 2.856-15.473 1.522-22-4L158 155.5c-5.824-13.722-1.99-23.388 11.5-29Z" fill="#fefffe" opacity=".964" data-color="1"></path>
        <path d="M321.5 126.5c13.867-1.251 21.867 4.916 24 18.5a28.205 28.205 0 0 1-3.5 10.5 1167.705 1167.705 0 0 0-28.5 29 1167.705 1167.705 0 0 0 28.5 29c6.229 11.636 3.729 20.803-7.5 27.5-6.71 2.429-13.043 1.763-19-2L271 194.5c-3.333-6.667-3.333-13.333 0-20l45.5-45.5a38.715 38.715 0 0 0 5-2.5Z" fill="#fefffe" opacity=".977" data-color="1"></path>
        <path d="M168.5 199.5c7.232-1.087 13.566.746 19 5.5a2292.04 2292.04 0 0 0 80.5 80.5c6.855 12.757 4.022 22.591-8.5 29.5-6.458 1.301-12.458.301-18-3L158 228.5c-6.053-13.214-2.553-22.88 10.5-29Z" fill="#fefffe" opacity=".971" data-color="1"></path>
        <path d="M168.5 271.5c5.449-.532 10.449.634 15 3.5a84.943 84.943 0 0 1 14.5 16.5c3.258 10.494.091 18.327-9.5 23.5-6.145 2.185-12.145 1.852-18-1a96.157 96.157 0 0 1-15.5-17.5c-2.251-12.175 2.249-20.508 13.5-25Z" fill="#fefffe" opacity=".959" data-color="1"></path>
        <path d="M164.5 340.5c5.495-.485 10.662.515 15.5 3 2.359 9.481-1.474 13.481-11.5 12v9h-4v-24Zm4 4c2.357-.163 4.69.003 7 .5 2.664 2.355 2.497 4.522-.5 6.5a15.894 15.894 0 0 1-6.5 1v-8Z" fill="#fefffe" opacity=".706" data-color="1"></path>
        <path d="M195.5 340.5c1.478-.262 2.811.071 4 1a948.01 948.01 0 0 1 9 22.5 12.93 12.93 0 0 1-5 .5 6.846 6.846 0 0 0-1-4 25.879 25.879 0 0 0-10-1c.24 4.027-1.426 5.361-5 4a321.186 321.186 0 0 0 8-23Zm2 7c1.17 2.15 2.17 4.484 3 7-1.921 1.141-3.921 1.308-6 .5a104.43 104.43 0 0 0 3-7.5Z" fill="#fefffe" opacity=".706" data-color="1"></path>
        <path d="M215.5 340.5c1.644-.214 3.144.12 4.5 1a179.617 179.617 0 0 0 10 15c.499-5.323.666-10.656.5-16h4v24c-2.222.322-4.056-.345-5.5-2l-9-14a128.507 128.507 0 0 0-.5 16h-4v-24Z" fill="#fefffe" opacity=".71" data-color="1"></path>
        <path d="M243.5 340.5a44.687 44.687 0 0 1 16 2.5c5.333 6.667 5.333 13.333 0 20-5.208 1.397-10.541 1.897-16 1.5v-24Zm4 4c9.104-1.062 12.938 2.938 11.5 12-2.425 4.563-6.258 6.229-11.5 5v-17Z" fill="#fefffe" opacity=".715" data-color="1"></path>
        <path d="M271.5 340.5h15v4h-11v7h10v3h-10v7h11v3h-15v-24Z" fill="#fefffe" opacity=".712" data-color="1"></path>
        <path d="M295.5 340.5c5.215-.417 10.049.583 14.5 3 2.601 5.002 1.434 8.835-3.5 11.5a36.104 36.104 0 0 1 5 8.5c-1.667 1.333-3.333 1.333-5 0-1.576-2.479-2.576-5.146-3-8h-5v9h-3v-24Zm3 4c2.357-.163 4.69.003 7 .5 2.871 2.84 2.537 5.174-1 7a18.453 18.453 0 0 1-6 .5v-8Z" fill="#fefffe" opacity=".771" data-color="1"></path>
        <path d="M319.5 340.5h15v4h-11v7h10v3h-10v7h11v3h-15v-24Z" fill="#fefffe" opacity=".712" data-color="1"></path>
    </g>
</svg>